<?xml version="1.0" ?><svg style="enable-background:new 0 0 32 32;" version="1.1" viewBox="0 0 32 32" xml:space="preserve" xmlns="http://www.w3.org/2000/svg" xmlns:xlink="http://www.w3.org/1999/xlink"><g id="Guides"/><g id="_x32_0"/><g id="_x31_9"/><g id="_x31_8"/><g id="_x31_7"/><g id="_x31_6"/><g id="_x31_5"/><g id="_x31_4"/><g id="_x31_3"/><g id="_x31_2"/><g id="_x31_1"/><g id="_x31_0"/><g id="_x30_9"/><g id="_x30_8"><g><path d="M16.0004,29.9996c-0.3789,0-0.7251-0.2139-0.8945-0.5527L2.1062,3.4476C1.8592,2.9535,2.0593,2.3529,2.5535,2.1058    c0.4961-0.248,1.0952-0.0464,1.3418,0.4473l12.1051,24.2108L28.1055,2.5531c0.2471-0.4941,0.8476-0.6943,1.3418-0.4473    s0.6943,0.8476,0.4473,1.3418L16.8949,29.4469C16.7255,29.7858,16.3793,29.9996,16.0004,29.9996z"/></g><g><path d="M22,17H10c-0.5522,0-1-0.4478-1-1s0.4478-1,1-1h12c0.5527,0,1,0.4478,1,1S22.5527,17,22,17z"/></g></g><g id="_x30_7"/><g id="_x30_6"/><g id="_x30_5"/><g id="_x30_4"/><g id="_x30_3"/><g id="_x30_2"/><g id="_x30_1"/></svg>